<?xml version="1.0" encoding="UTF-8" standalone="no"?>
<!-- Created with Inkscape (http://www.inkscape.org/) -->

<svg
   xmlns:osb="http://www.openswatchbook.org/uri/2009/osb"
   xmlns:dc="http://purl.org/dc/elements/1.1/"
   xmlns:cc="http://creativecommons.org/ns#"
   xmlns:rdf="http://www.w3.org/1999/02/22-rdf-syntax-ns#"
   xmlns:svg="http://www.w3.org/2000/svg"
   xmlns="http://www.w3.org/2000/svg"
   xmlns:sodipodi="http://sodipodi.sourceforge.net/DTD/sodipodi-0.dtd"
   xmlns:inkscape="http://www.inkscape.org/namespaces/inkscape"
   width="115.46256mm"
   height="87.57708mm"
   viewBox="0 0 115.46256 87.57708"
   version="1.1"
   id="svg8"
   inkscape:version="0.92.1 r"
   sodipodi:docname="Siddon.svg">
  <defs
     id="defs2">
    <linearGradient
       inkscape:collect="always"
       id="linearGradient5945"
       osb:paint="gradient">
      <stop
         style="stop-color:#000000;stop-opacity:1;"
         offset="0"
         id="stop5941" />
      <stop
         style="stop-color:#000000;stop-opacity:0;"
         offset="1"
         id="stop5943" />
    </linearGradient>
  </defs>
  <sodipodi:namedview
     id="base"
     pagecolor="#ffffff"
     bordercolor="#666666"
     borderopacity="1.0"
     inkscape:pageopacity="0.0"
     inkscape:pageshadow="2"
     inkscape:zoom="1.4"
     inkscape:cx="194.30716"
     inkscape:cy="445.96102"
     inkscape:document-units="mm"
     inkscape:current-layer="layer1"
     showgrid="false"
     inkscape:window-width="2560"
     inkscape:window-height="1383"
     inkscape:window-x="0"
     inkscape:window-y="31"
     inkscape:window-maximized="1" />
  <metadata
     id="metadata5">
    <rdf:RDF>
      <cc:Work
         rdf:about="">
        <dc:format>image/svg+xml</dc:format>
        <dc:type
           rdf:resource="http://purl.org/dc/dcmitype/StillImage" />
        <dc:title></dc:title>
      </cc:Work>
    </rdf:RDF>
  </metadata>
  <g
     inkscape:label="Layer 1"
     inkscape:groupmode="layer"
     id="layer1"
     transform="translate(-17.344239,-199.02535)">
    <path
       d="m 29.100342,11.303461 v 87.394412 m 7.9375,-87.394412 v 87.394412 m 7.9375,-87.394412 v 87.394412 m 7.9375,-87.394412 v 87.394412 m 7.937499,-87.394412 v 87.394412 m 7.937497,-87.394412 v 87.394412 m 7.9375,-87.394412 v 87.394412 m 7.937496,-87.394412 v 87.394412 m 7.9375,-87.394412 v 87.394412 m 7.937496,-87.394412 v 87.394412 m 7.9375,-87.394412 v 87.394412 m 7.9375,-87.394412 V 98.697873 M 29.100342,11.303461 H 116.76206 M 29.100342,19.240958 H 116.76206 M 29.100342,27.178452 H 116.76206 M 29.100342,35.115949 H 116.76206 M 29.100342,43.053443 H 116.76206 M 29.100342,50.99094 h 87.661718 m -87.661718,7.937494 h 87.661718 m -87.661718,7.937497 h 87.661718 m -87.661718,7.937494 h 87.661718 m -87.661718,7.937497 h 87.661718 m -87.661718,7.937494 h 87.661718 m -87.661718,7.937497 h 87.661718"
       style="fill:none;stroke:#d9d9d9;stroke-width:0.26458299px;stroke-opacity:1"
       id="path6000"
       inkscape:connector-curvature="0" />
    <path
       style="fill:#ec0000;fill-opacity:1;fill-rule:evenodd;stroke:#f50000;stroke-width:0.66500002;stroke-linecap:butt;stroke-linejoin:miter;stroke-miterlimit:4;stroke-dasharray:none;stroke-opacity:1"
       d="M 17.103422,81.836992 132.29166,29.676312"
       id="path6002"
       inkscape:connector-curvature="0" />
    <path
       inkscape:connector-curvature="0"
       id="path6025"
       style="fill:none;stroke:#d9d9d9;stroke-width:0.26458299px;stroke-opacity:1"
       d="m 29.478318,103.90758 v 87.39446 m 7.9375,-87.39446 v 87.39446 m 7.9375,-87.39446 v 87.39446 m 7.9375,-87.39446 v 87.39446 m 7.937499,-87.39446 v 87.39446 m 7.937497,-87.39446 v 87.39446 m 7.9375,-87.39446 v 87.39446 m 7.937496,-87.39446 v 87.39446 m 7.9375,-87.39446 v 87.39446 m 7.9375,-87.39446 v 87.39446 m 7.9375,-87.39446 v 87.39446 m 7.9375,-87.39446 v 87.39446 M 29.478318,103.90758 h 87.661722 m -87.661722,7.9375 h 87.661722 m -87.661722,7.9375 h 87.661722 m -87.661722,7.9375 h 87.661722 m -87.661722,7.9375 h 87.661722 m -87.661722,7.9375 h 87.661722 m -87.661722,7.9375 h 87.661722 m -87.661722,7.9375 h 87.661722 m -87.661722,7.9375 h 87.661722 m -87.661722,7.9375 h 87.661722 m -87.661722,7.9375 h 87.661722 m -87.661722,7.9375 h 87.661722" />
    <path
       inkscape:connector-curvature="0"
       id="path6027"
       d="M 17.481398,174.44115 132.66964,122.28044"
       style="fill:#ec0000;fill-opacity:1;fill-rule:evenodd;stroke:#f50000;stroke-width:0.66500002;stroke-linecap:butt;stroke-linejoin:miter;stroke-miterlimit:4;stroke-dasharray:none;stroke-opacity:1" />
    <path
       d="m 28.96805,11.171168 v 87.577035 m 7.9375,-87.577035 v 87.577035 m 7.937499,-87.577035 v 87.577035 m 7.9375,-87.577035 v 87.577035 m 7.9375,-87.577035 v 87.577035 m 7.9375,-87.577035 v 87.577035 m 7.9375,-87.577035 v 87.577035 m 7.9375,-87.577035 v 87.577035 m 7.937497,-87.577035 v 87.577035 m 7.937504,-87.577035 v 87.577035 m 7.9375,-87.577035 v 87.577035 m 7.9375,-87.577035 V 98.748203 M 28.96805,11.171168 h 87.79401"
       style="fill:none;stroke:#0e1aff;stroke-width:0.565;stroke-miterlimit:4;stroke-dasharray:none;stroke-opacity:0.74909105"
       id="path6031"
       inkscape:connector-curvature="0" />
    <path
       d="m 29.346026,103.77528 v 87.57709 m 0,-87.57709 h 87.794014 m -87.794014,7.9375 h 87.794014 m -87.794014,7.9375 h 87.794014 m -87.794014,7.9375 h 87.794014 m -87.794014,7.9375 h 87.794014 m -87.794014,7.9375 h 87.794014 m -87.794014,7.9375 h 87.794014 m -87.794014,7.9375 h 87.794014 m -87.794014,7.9375 h 87.794014 m -87.794014,7.9375 h 87.794014 m -87.794014,7.9375 h 87.794014 m -87.794014,7.9375 h 87.794014"
       style="fill:none;stroke:#0e1aff;stroke-width:0.565;stroke-miterlimit:4;stroke-dasharray:none;stroke-opacity:0.74901961"
       id="path6033"
       inkscape:connector-curvature="0" />
    <path
       d="m 29.478318,199.15764 v 87.39446 m 7.9375,-87.39446 v 87.39446 m 7.9375,-87.39446 v 87.39446 m 7.9375,-87.39446 v 87.39446 m 7.937499,-87.39446 v 87.39446 m 7.937497,-87.39446 v 87.39446 m 7.9375,-87.39446 v 87.39446 m 7.937496,-87.39446 v 87.39446 m 7.9375,-87.39446 v 87.39446 m 7.9375,-87.39446 v 87.39446 m 7.9375,-87.39446 v 87.39446 m 7.9375,-87.39446 V 286.5521 M 29.478318,199.15764 h 87.661722 m -87.661722,7.9375 h 87.661722 m -87.661722,7.9375 h 87.661722 m -87.661722,7.9375 h 87.661722 m -87.661722,7.9375 h 87.661722 m -87.661722,7.9375 h 87.661722 m -87.661722,7.9375 h 87.661722 m -87.661722,7.9375 h 87.661722 m -87.661722,7.9375 h 87.661722 m -87.661722,7.9375 h 87.661722 m -87.661722,7.9375 h 87.661722 m -87.661722,7.9375 h 87.661722"
       style="fill:none;stroke:#d9d9d9;stroke-width:0.26458299px;stroke-opacity:1"
       id="path6039"
       inkscape:connector-curvature="0" />
    <path
       style="fill:#ec0000;fill-opacity:1;fill-rule:evenodd;stroke:#f50000;stroke-width:0.66500002;stroke-linecap:butt;stroke-linejoin:miter;stroke-miterlimit:4;stroke-dasharray:none;stroke-opacity:1"
       d="M 17.481398,269.69121 132.66964,217.5305"
       id="path6041"
       inkscape:connector-curvature="0" />
  </g>
</svg>
