<?xml version="1.0" encoding="UTF-8" standalone="no"?>
<!-- Created with Inkscape (http://www.inkscape.org/) -->

<svg
   xmlns:osb="http://www.openswatchbook.org/uri/2009/osb"
   xmlns:dc="http://purl.org/dc/elements/1.1/"
   xmlns:cc="http://creativecommons.org/ns#"
   xmlns:rdf="http://www.w3.org/1999/02/22-rdf-syntax-ns#"
   xmlns:svg="http://www.w3.org/2000/svg"
   xmlns="http://www.w3.org/2000/svg"
   xmlns:sodipodi="http://sodipodi.sourceforge.net/DTD/sodipodi-0.dtd"
   xmlns:inkscape="http://www.inkscape.org/namespaces/inkscape"
   width="115.46256mm"
   height="87.57708mm"
   viewBox="0 0 115.46256 87.57708"
   version="1.1"
   id="svg8"
   inkscape:version="0.92.1 r"
   sodipodi:docname="Siddon.svg">
  <defs
     id="defs2">
    <linearGradient
       id="linearGradient5945"
       osb:paint="gradient">
      <stop
         style="stop-color:#000000;stop-opacity:1;"
         offset="0"
         id="stop5941" />
      <stop
         style="stop-color:#000000;stop-opacity:0;"
         offset="1"
         id="stop5943" />
    </linearGradient>
  </defs>
  <sodipodi:namedview
     id="base"
     pagecolor="#ffffff"
     bordercolor="#666666"
     borderopacity="1.0"
     inkscape:pageopacity="0.0"
     inkscape:pageshadow="2"
     inkscape:zoom="0.98994949"
     inkscape:cx="256.07404"
     inkscape:cy="-178.58392"
     inkscape:document-units="mm"
     inkscape:current-layer="layer1"
     showgrid="false"
     inkscape:window-width="2560"
     inkscape:window-height="1383"
     inkscape:window-x="0"
     inkscape:window-y="31"
     inkscape:window-maximized="1" />
  <metadata
     id="metadata5">
    <rdf:RDF>
      <cc:Work
         rdf:about="">
        <dc:format>image/svg+xml</dc:format>
        <dc:type
           rdf:resource="http://purl.org/dc/dcmitype/StillImage" />
        <dc:title />
      </cc:Work>
    </rdf:RDF>
  </metadata>
  <g
     inkscape:label="Layer 1"
     inkscape:groupmode="layer"
     id="layer1"
     transform="translate(-17.344239,-199.02535)">
    <path
       d="m 29.100342,11.303461 v 87.394412 m 7.9375,-87.394412 v 87.394412 m 7.9375,-87.394412 v 87.394412 m 7.9375,-87.394412 v 87.394412 m 7.937499,-87.394412 v 87.394412 m 7.937497,-87.394412 v 87.394412 m 7.9375,-87.394412 v 87.394412 m 7.937496,-87.394412 v 87.394412 m 7.9375,-87.394412 v 87.394412 m 7.937496,-87.394412 v 87.394412 m 7.9375,-87.394412 v 87.394412 m 7.9375,-87.394412 V 98.697873 M 29.100342,11.303461 H 116.76206 M 29.100342,19.240958 H 116.76206 M 29.100342,27.178452 H 116.76206 M 29.100342,35.115949 H 116.76206 M 29.100342,43.053443 H 116.76206 M 29.100342,50.99094 h 87.661718 m -87.661718,7.937494 h 87.661718 m -87.661718,7.937497 h 87.661718 m -87.661718,7.937494 h 87.661718 m -87.661718,7.937497 h 87.661718 m -87.661718,7.937494 h 87.661718 m -87.661718,7.937497 h 87.661718"
       style="fill:none;stroke:#d9d9d9;stroke-width:0.26458299px;stroke-opacity:1"
       id="path6000"
       inkscape:connector-curvature="0" />
    <path
       style="fill:#ec0000;fill-opacity:1;fill-rule:evenodd;stroke:#f50000;stroke-width:0.66500002;stroke-linecap:butt;stroke-linejoin:miter;stroke-miterlimit:4;stroke-dasharray:none;stroke-opacity:1"
       d="M 17.103422,81.836992 132.29166,29.676312"
       id="path6002"
       inkscape:connector-curvature="0" />
    <path
       inkscape:connector-curvature="0"
       id="path6025"
       style="fill:none;stroke:#d9d9d9;stroke-width:0.26458299px;stroke-opacity:1"
       d="m 29.478318,103.90758 v 87.39446 m 7.9375,-87.39446 v 87.39446 m 7.9375,-87.39446 v 87.39446 m 7.9375,-87.39446 v 87.39446 m 7.937499,-87.39446 v 87.39446 m 7.937497,-87.39446 v 87.39446 m 7.9375,-87.39446 v 87.39446 m 7.937496,-87.39446 v 87.39446 m 7.9375,-87.39446 v 87.39446 m 7.9375,-87.39446 v 87.39446 m 7.9375,-87.39446 v 87.39446 m 7.9375,-87.39446 v 87.39446 M 29.478318,103.90758 h 87.661722 m -87.661722,7.9375 h 87.661722 m -87.661722,7.9375 h 87.661722 m -87.661722,7.9375 h 87.661722 m -87.661722,7.9375 h 87.661722 m -87.661722,7.9375 h 87.661722 m -87.661722,7.9375 h 87.661722 m -87.661722,7.9375 h 87.661722 m -87.661722,7.9375 h 87.661722 m -87.661722,7.9375 h 87.661722 m -87.661722,7.9375 h 87.661722 m -87.661722,7.9375 h 87.661722" />
    <path
       inkscape:connector-curvature="0"
       id="path6027"
       d="M 17.481398,174.44115 132.66964,122.28044"
       style="fill:#ec0000;fill-opacity:1;fill-rule:evenodd;stroke:#f50000;stroke-width:0.66500002;stroke-linecap:butt;stroke-linejoin:miter;stroke-miterlimit:4;stroke-dasharray:none;stroke-opacity:1" />
    <path
       d="m 28.96805,11.171168 v 87.577035 m 7.9375,-87.577035 v 87.577035 m 7.937499,-87.577035 v 87.577035 m 7.9375,-87.577035 v 87.577035 m 7.9375,-87.577035 v 87.577035 m 7.9375,-87.577035 v 87.577035 m 7.9375,-87.577035 v 87.577035 m 7.9375,-87.577035 v 87.577035 m 7.937497,-87.577035 v 87.577035 m 7.937504,-87.577035 v 87.577035 m 7.9375,-87.577035 v 87.577035 m 7.9375,-87.577035 V 98.748203 M 28.96805,11.171168 h 87.79401"
       style="fill:none;stroke:#0e1aff;stroke-width:0.565;stroke-miterlimit:4;stroke-dasharray:none;stroke-opacity:0.74909105"
       id="path6031"
       inkscape:connector-curvature="0" />
    <path
       d="m 29.346026,103.77528 v 87.57709 m 0,-87.57709 h 87.794014 m -87.794014,7.9375 h 87.794014 m -87.794014,7.9375 h 87.794014 m -87.794014,7.9375 h 87.794014 m -87.794014,7.9375 h 87.794014 m -87.794014,7.9375 h 87.794014 m -87.794014,7.9375 h 87.794014 m -87.794014,7.9375 h 87.794014 m -87.794014,7.9375 h 87.794014 m -87.794014,7.9375 h 87.794014 m -87.794014,7.9375 h 87.794014 m -87.794014,7.9375 h 87.794014"
       style="fill:none;stroke:#0e1aff;stroke-width:0.565;stroke-miterlimit:4;stroke-dasharray:none;stroke-opacity:0.74901961"
       id="path6033"
       inkscape:connector-curvature="0" />
    <path
       d="m 29.478318,199.15764 v 87.39446 m 7.9375,-87.39446 v 87.39446 m 7.9375,-87.39446 v 87.39446 m 7.9375,-87.39446 v 87.39446 m 7.937499,-87.39446 v 87.39446 m 7.937497,-87.39446 v 87.39446 m 7.9375,-87.39446 v 87.39446 m 7.937496,-87.39446 v 87.39446 m 7.9375,-87.39446 v 87.39446 m 7.9375,-87.39446 v 87.39446 m 7.9375,-87.39446 v 87.39446 m 7.9375,-87.39446 V 286.5521 M 29.478318,199.15764 h 87.661722 m -87.661722,7.9375 h 87.661722 m -87.661722,7.9375 h 87.661722 m -87.661722,7.9375 h 87.661722 m -87.661722,7.9375 h 87.661722 m -87.661722,7.9375 h 87.661722 m -87.661722,7.9375 h 87.661722 m -87.661722,7.9375 h 87.661722 m -87.661722,7.9375 h 87.661722 m -87.661722,7.9375 h 87.661722 m -87.661722,7.9375 h 87.661722 m -87.661722,7.9375 h 87.661722"
       style="fill:none;stroke:#d9d9d9;stroke-width:0.26458299px;stroke-opacity:1"
       id="path6039"
       inkscape:connector-curvature="0" />
    <path
       style="fill:#ec0000;fill-opacity:1;fill-rule:evenodd;stroke:#f50000;stroke-width:0.66500002;stroke-linecap:butt;stroke-linejoin:miter;stroke-miterlimit:4;stroke-dasharray:none;stroke-opacity:1"
       d="M 17.481398,269.69121 132.66964,217.5305"
       id="path6041"
       inkscape:connector-curvature="0" />
    <path
       inkscape:connector-curvature="0"
       id="path4493"
       style="fill:none;stroke:#0e1aff;stroke-width:0.565;stroke-opacity:0.74901962;stroke-miterlimit:4;stroke-dasharray:none"
       d="m 29.478318,310.28271 v 87.39446 m 7.9375,-87.39446 v 87.39446 m 7.9375,-87.39446 v 87.39446 m 7.9375,-87.39446 v 87.39446 m 7.937499,-87.39446 v 87.39446 m 7.937497,-87.39446 v 87.39446 m 7.9375,-87.39446 v 87.39446 m 7.937496,-87.39446 v 87.39446 m 7.9375,-87.39446 v 87.39446 m 7.9375,-87.39446 v 87.39446 m 7.9375,-87.39446 v 87.39446 m 7.9375,-87.39446 v 87.39446 M 29.478318,310.28271 h 87.661722 m -87.661722,7.9375 h 87.661722 m -87.661722,7.9375 h 87.661722 m -87.661722,7.9375 h 87.661722 m -87.661722,7.9375 h 87.661722 m -87.661722,7.9375 h 87.661722 m -87.661722,7.9375 h 87.661722 m -87.661722,7.9375 h 87.661722 m -87.661722,7.9375 h 87.661722 m -87.661722,7.9375 h 87.661722 m -87.661722,7.9375 h 87.661722 m -87.661722,7.9375 h 87.661722" />
    <path
       inkscape:connector-curvature="0"
       id="path4495"
       d="M 17.481398,380.81628 132.66964,328.65557"
       style="fill:#ec0000;fill-opacity:1;fill-rule:evenodd;stroke:#f50000;stroke-width:0.66500002;stroke-linecap:butt;stroke-linejoin:miter;stroke-miterlimit:4;stroke-dasharray:none;stroke-opacity:1" />
    <path
       sodipodi:type="star"
       style="fill:#0ac900;fill-opacity:1;stroke:none;stroke-width:0.56499994;stroke-miterlimit:4;stroke-dasharray:none;stroke-dashoffset:0;stroke-opacity:0.74901961;paint-order:fill markers stroke"
       id="path4497"
       sodipodi:sides="5"
       sodipodi:cx="33.464923"
       sodipodi:cy="373.72595"
       sodipodi:r1="1.8347424"
       sodipodi:r2="0.91737127"
       sodipodi:arg1="1.0471976"
       sodipodi:arg2="1.6755161"
       inkscape:flatsided="false"
       inkscape:rounded="0"
       inkscape:randomized="0"
       d="m 34.382295,375.31489 -1.013263,-0.67659 -1.131791,0.45113 0.330358,-1.17275 -0.778796,-0.93698 1.217435,-0.0482 0.650469,-1.03023 0.422058,1.14295 1.180808,0.30028 -0.956589,0.75459 z"
       inkscape:transform-center-x="-0.059264616"
       inkscape:transform-center-y="-0.11788062" />
    <path
       inkscape:transform-center-y="-0.11788062"
       inkscape:transform-center-x="-0.059264616"
       d="m 62.182504,362.55823 -1.013263,-0.67658 -1.13179,0.45113 0.330357,-1.17275 -0.778796,-0.93699 1.217435,-0.0482 0.650469,-1.03022 0.422058,1.14295 1.180808,0.30028 -0.956589,0.75459 z"
       inkscape:randomized="0"
       inkscape:rounded="0"
       inkscape:flatsided="false"
       sodipodi:arg2="1.6755161"
       sodipodi:arg1="1.0471976"
       sodipodi:r2="0.91737127"
       sodipodi:r1="1.8347424"
       sodipodi:cy="360.9693"
       sodipodi:cx="61.265133"
       sodipodi:sides="5"
       id="path4503"
       style="fill:#000000;fill-opacity:1;stroke:none;stroke-width:0.56499994;stroke-miterlimit:4;stroke-dasharray:none;stroke-dashoffset:0;stroke-opacity:0.74901961;paint-order:fill markers stroke"
       sodipodi:type="star" />
    <path
       inkscape:transform-center-y="-0.11788062"
       inkscape:transform-center-x="-0.059264616"
       d="m 38.37,373.48166 -1.013262,-0.67658 -1.131791,0.45113 0.330358,-1.17275 -0.778796,-0.93699 1.217434,-0.0482 0.650469,-1.03022 0.422058,1.14295 1.180808,0.30028 -0.956589,0.75459 z"
       inkscape:randomized="0"
       inkscape:rounded="0"
       inkscape:flatsided="false"
       sodipodi:arg2="1.6755161"
       sodipodi:arg1="1.0471976"
       sodipodi:r2="0.91737127"
       sodipodi:r1="1.8347424"
       sodipodi:cy="371.89272"
       sodipodi:cx="37.452629"
       sodipodi:sides="5"
       id="path4507"
       style="fill:#000000;fill-opacity:1;stroke:none;stroke-width:0.56499994;stroke-miterlimit:4;stroke-dasharray:none;stroke-dashoffset:0;stroke-opacity:0.74901961;paint-order:fill markers stroke"
       sodipodi:type="star" />
    <path
       sodipodi:type="star"
       style="fill:#000000;fill-opacity:1;stroke:none;stroke-width:0.56499994;stroke-miterlimit:4;stroke-dasharray:none;stroke-dashoffset:0;stroke-opacity:0.74901961;paint-order:fill markers stroke"
       id="path4509"
       sodipodi:sides="5"
       sodipodi:cx="45.390133"
       sodipodi:cy="368.18861"
       sodipodi:r1="1.8347424"
       sodipodi:r2="0.91737127"
       sodipodi:arg1="1.0471976"
       sodipodi:arg2="1.6755161"
       inkscape:flatsided="false"
       inkscape:rounded="0"
       inkscape:randomized="0"
       d="m 46.307504,369.77753 -1.013263,-0.67659 -1.13179,0.45114 0.330357,-1.17275 -0.778796,-0.93699 1.217435,-0.0482 0.650469,-1.03022 0.422058,1.14295 1.180808,0.30027 -0.956589,0.7546 z"
       inkscape:transform-center-x="-0.059264616"
       inkscape:transform-center-y="-0.11788062" />
    <path
       inkscape:transform-center-y="-0.11788062"
       inkscape:transform-center-x="-0.059264616"
       d="m 51.8448,367.37745 -1.013262,-0.67659 -1.131791,0.45113 0.330358,-1.17274 -0.778796,-0.93699 1.217435,-0.0482 0.650468,-1.03023 0.422058,1.14295 1.180808,0.30028 -0.956588,0.75459 z"
       inkscape:randomized="0"
       inkscape:rounded="0"
       inkscape:flatsided="false"
       sodipodi:arg2="1.6755161"
       sodipodi:arg1="1.0471976"
       sodipodi:r2="0.91737127"
       sodipodi:r1="1.8347424"
       sodipodi:cy="365.78851"
       sodipodi:cx="50.92743"
       sodipodi:sides="5"
       id="path4511"
       style="fill:#0ac900;fill-opacity:1;stroke:none;stroke-width:0.56499994;stroke-miterlimit:4;stroke-dasharray:none;stroke-dashoffset:0;stroke-opacity:0.74901961;paint-order:fill markers stroke"
       sodipodi:type="star" />
    <path
       sodipodi:type="star"
       style="fill:#000000;fill-opacity:1;stroke:none;stroke-width:0.56499994;stroke-miterlimit:4;stroke-dasharray:none;stroke-dashoffset:0;stroke-opacity:0.74901961;paint-order:fill markers stroke"
       id="path4513"
       sodipodi:sides="5"
       sodipodi:cx="53.422119"
       sodipodi:cy="364.57903"
       sodipodi:r1="1.8347424"
       sodipodi:r2="0.91737127"
       sodipodi:arg1="1.0471976"
       sodipodi:arg2="1.6755161"
       inkscape:flatsided="false"
       inkscape:rounded="0"
       inkscape:randomized="0"
       d="m 54.33949,366.16797 -1.013262,-0.67658 -1.131791,0.45113 0.330358,-1.17275 -0.778796,-0.93699 1.217435,-0.0482 0.650468,-1.03022 0.422058,1.14295 1.180808,0.30028 -0.956589,0.75459 z"
       inkscape:transform-center-x="-0.059264616"
       inkscape:transform-center-y="-0.11788062" />
    <path
       sodipodi:type="star"
       style="fill:#0ac900;fill-opacity:1;stroke:none;stroke-width:0.56499994;stroke-miterlimit:4;stroke-dasharray:none;stroke-dashoffset:0;stroke-opacity:0.74901961;paint-order:fill markers stroke"
       id="path4515"
       sodipodi:sides="5"
       sodipodi:cx="68.389931"
       sodipodi:cy="357.85107"
       sodipodi:r1="1.8347424"
       sodipodi:r2="0.91737127"
       sodipodi:arg1="1.0471976"
       sodipodi:arg2="1.6755161"
       inkscape:flatsided="false"
       inkscape:rounded="0"
       inkscape:randomized="0"
       d="m 69.307302,359.44001 -1.013263,-0.67659 -1.131791,0.45113 0.330358,-1.17274 -0.778796,-0.93699 1.217435,-0.0482 0.650469,-1.03023 0.422058,1.14295 1.180808,0.30028 -0.956589,0.75459 z"
       inkscape:transform-center-x="-0.059264616"
       inkscape:transform-center-y="-0.11788062" />
    <path
       sodipodi:type="star"
       style="fill:#000000;fill-opacity:1;stroke:none;stroke-width:0.56499994;stroke-miterlimit:4;stroke-dasharray:none;stroke-dashoffset:0;stroke-opacity:0.74901961;paint-order:fill markers stroke"
       id="path4502"
       sodipodi:sides="5"
       sodipodi:cx="69.202637"
       sodipodi:cy="357.26508"
       sodipodi:r1="1.8347424"
       sodipodi:r2="0.91737127"
       sodipodi:arg1="1.0471976"
       sodipodi:arg2="1.6755161"
       inkscape:flatsided="false"
       inkscape:rounded="0"
       inkscape:randomized="0"
       d="m 70.120008,358.85401 -1.013263,-0.67659 -1.131791,0.45113 0.330358,-1.17274 -0.778796,-0.93699 1.217435,-0.0482 0.650469,-1.03023 0.422058,1.14296 1.180808,0.30027 -0.956589,0.75459 z"
       inkscape:transform-center-x="-0.059264616"
       inkscape:transform-center-y="-0.11788062" />
    <path
       inkscape:transform-center-y="-0.11788062"
       inkscape:transform-center-x="-0.059264616"
       d="m 78.057508,355.14988 -1.013263,-0.67659 -1.131791,0.45113 0.330358,-1.17274 -0.778796,-0.93699 1.217435,-0.0482 0.650469,-1.03023 0.422058,1.14295 1.180808,0.30028 -0.956589,0.75459 z"
       inkscape:randomized="0"
       inkscape:rounded="0"
       inkscape:flatsided="false"
       sodipodi:arg2="1.6755161"
       sodipodi:arg1="1.0471976"
       sodipodi:r2="0.91737127"
       sodipodi:r1="1.8347424"
       sodipodi:cy="353.56095"
       sodipodi:cx="77.140137"
       sodipodi:sides="5"
       id="path4504"
       style="fill:#000000;fill-opacity:1;stroke:none;stroke-width:0.56499994;stroke-miterlimit:4;stroke-dasharray:none;stroke-dashoffset:0;stroke-opacity:0.74901961;paint-order:fill markers stroke"
       sodipodi:type="star" />
    <path
       sodipodi:type="star"
       style="fill:#000000;fill-opacity:1;stroke:none;stroke-width:0.56499994;stroke-miterlimit:4;stroke-dasharray:none;stroke-dashoffset:0;stroke-opacity:0.74901961;paint-order:fill markers stroke"
       id="path4506"
       sodipodi:sides="5"
       sodipodi:cx="85.077644"
       sodipodi:cy="350.38589"
       sodipodi:r1="1.8347424"
       sodipodi:r2="0.91737127"
       sodipodi:arg1="1.0471976"
       sodipodi:arg2="1.6755161"
       inkscape:flatsided="false"
       inkscape:rounded="0"
       inkscape:randomized="0"
       d="m 85.995015,351.97483 -1.013262,-0.67659 -1.131791,0.45113 0.330358,-1.17274 -0.778796,-0.93699 1.217435,-0.0482 0.650468,-1.03023 0.422059,1.14296 1.180807,0.30027 -0.956588,0.75459 z"
       inkscape:transform-center-x="-0.059264616"
       inkscape:transform-center-y="-0.11788062" />
    <path
       inkscape:transform-center-y="-0.11788062"
       inkscape:transform-center-x="-0.059264616"
       d="m 93.932523,348.2706 -1.013262,-0.67658 -1.131791,0.45113 0.330357,-1.17275 -0.778796,-0.93699 1.217435,-0.0482 0.650469,-1.03022 0.422058,1.14295 1.180808,0.30028 -0.956589,0.75459 z"
       inkscape:randomized="0"
       inkscape:rounded="0"
       inkscape:flatsided="false"
       sodipodi:arg2="1.6755161"
       sodipodi:arg1="1.0471976"
       sodipodi:r2="0.91737127"
       sodipodi:r1="1.8347424"
       sodipodi:cy="346.68167"
       sodipodi:cx="93.015151"
       sodipodi:sides="5"
       id="path4508"
       style="fill:#000000;fill-opacity:1;stroke:none;stroke-width:0.56499994;stroke-miterlimit:4;stroke-dasharray:none;stroke-dashoffset:0;stroke-opacity:0.74901961;paint-order:fill markers stroke"
       sodipodi:type="star" />
    <path
       sodipodi:type="star"
       style="fill:#000000;fill-opacity:1;stroke:none;stroke-width:0.56499994;stroke-miterlimit:4;stroke-dasharray:none;stroke-dashoffset:0;stroke-opacity:0.74901961;paint-order:fill markers stroke"
       id="path4510"
       sodipodi:sides="5"
       sodipodi:cx="100.95266"
       sodipodi:cy="343.16642"
       sodipodi:r1="1.8347424"
       sodipodi:r2="0.91737127"
       sodipodi:arg1="1.0471976"
       sodipodi:arg2="1.6755161"
       inkscape:flatsided="false"
       inkscape:rounded="0"
       inkscape:randomized="0"
       d="m 101.87003,344.75535 -1.01326,-0.67659 -1.131793,0.45113 0.330363,-1.17275 -0.778801,-0.93698 1.217431,-0.0482 0.65047,-1.03023 0.42206,1.14295 1.18081,0.30028 -0.95659,0.75459 z"
       inkscape:transform-center-x="-0.059264616"
       inkscape:transform-center-y="-0.11788062" />
    <path
       inkscape:transform-center-y="-0.11788062"
       inkscape:transform-center-x="-0.059264616"
       d="m 109.80748,341.05112 -1.01327,-0.67659 -1.13179,0.45114 0.33036,-1.17275 -0.77879,-0.93699 1.21743,-0.0482 0.65047,-1.03022 0.42206,1.14295 1.18081,0.30027 -0.95659,0.7546 z"
       inkscape:randomized="0"
       inkscape:rounded="0"
       inkscape:flatsided="false"
       sodipodi:arg2="1.6755161"
       sodipodi:arg1="1.0471976"
       sodipodi:r2="0.91737127"
       sodipodi:r1="1.8347424"
       sodipodi:cy="339.46218"
       sodipodi:cx="108.89011"
       sodipodi:sides="5"
       id="path4512"
       style="fill:#000000;fill-opacity:1;stroke:none;stroke-width:0.56499994;stroke-miterlimit:4;stroke-dasharray:none;stroke-dashoffset:0;stroke-opacity:0.74901961;paint-order:fill markers stroke"
       sodipodi:type="star" />
    <path
       sodipodi:type="star"
       style="fill:#000000;fill-opacity:1;stroke:none;stroke-width:0.56499994;stroke-miterlimit:4;stroke-dasharray:none;stroke-dashoffset:0;stroke-opacity:0.74901961;paint-order:fill markers stroke"
       id="path4514"
       sodipodi:sides="5"
       sodipodi:cx="116.82756"
       sodipodi:cy="335.75797"
       sodipodi:r1="1.8347424"
       sodipodi:r2="0.91737127"
       sodipodi:arg1="1.0471976"
       sodipodi:arg2="1.6755161"
       inkscape:flatsided="false"
       inkscape:rounded="0"
       inkscape:randomized="0"
       d="m 117.74493,337.3469 -1.01326,-0.67659 -1.13179,0.45113 0.33036,-1.17274 -0.7788,-0.93699 1.21743,-0.0482 0.65047,-1.03023 0.42206,1.14296 1.18081,0.30027 -0.95659,0.75459 z"
       inkscape:transform-center-x="-0.059264616"
       inkscape:transform-center-y="-0.11788062" />
    <path
       sodipodi:type="star"
       style="fill:#0ac900;fill-opacity:1;stroke:none;stroke-width:0.56499994;stroke-miterlimit:4;stroke-dasharray:none;stroke-dashoffset:0;stroke-opacity:0.74901961;paint-order:fill markers stroke"
       id="path4516"
       sodipodi:sides="5"
       sodipodi:cx="103.3149"
       sodipodi:cy="341.97601"
       sodipodi:r1="1.8347424"
       sodipodi:r2="0.91737127"
       sodipodi:arg1="1.0471976"
       sodipodi:arg2="1.6755161"
       inkscape:flatsided="false"
       inkscape:rounded="0"
       inkscape:randomized="0"
       d="m 104.23227,343.56495 -1.01326,-0.67659 -1.13179,0.45113 0.33036,-1.17274 -0.7788,-0.93699 1.21744,-0.0482 0.65047,-1.03023 0.42205,1.14295 1.18081,0.30028 -0.95659,0.75459 z"
       inkscape:transform-center-x="-0.059264616"
       inkscape:transform-center-y="-0.11788062" />
    <path
       sodipodi:type="star"
       style="fill:#000000;fill-opacity:1;stroke:none;stroke-width:0.56499994;stroke-miterlimit:4;stroke-dasharray:none;stroke-dashoffset:0;stroke-opacity:0.74901961;paint-order:fill markers stroke"
       id="path4518"
       sodipodi:sides="5"
       sodipodi:cx="29.420628"
       sodipodi:cy="375.35127"
       sodipodi:r1="1.8347424"
       sodipodi:r2="0.91737127"
       sodipodi:arg1="1.0471976"
       sodipodi:arg2="1.6755161"
       inkscape:flatsided="false"
       inkscape:rounded="0"
       inkscape:randomized="0"
       d="m 30.337999,376.94019 -1.013263,-0.67659 -1.131791,0.45114 0.330358,-1.17275 -0.778796,-0.93699 1.217435,-0.0482 0.650468,-1.03022 0.422059,1.14295 1.180808,0.30027 -0.956589,0.7546 z"
       inkscape:transform-center-x="-0.059264616"
       inkscape:transform-center-y="-0.11788062" />
  </g>
</svg>
